<mxfile host="Electron" modified="2023-11-06T12:45:01.962Z" agent="Mozilla/5.0 (Windows NT 10.0; Win64; x64) AppleWebKit/537.36 (KHTML, like Gecko) draw.io/22.0.0 Chrome/114.0.5735.289 Electron/25.8.3 Safari/537.36" etag="VfrYRitGbmEncZzJazm7" version="22.0.0" type="device">
  <diagram name="Page-1" id="VuXyPBn29ZUD2stHR1pA">
    <mxGraphModel dx="2074" dy="1196" grid="1" gridSize="10" guides="1" tooltips="1" connect="1" arrows="1" fold="1" page="1" pageScale="1" pageWidth="827" pageHeight="1169" math="0" shadow="0">
      <root>
        <mxCell id="0" />
        <mxCell id="1" parent="0" />
        <mxCell id="xtKhgX61a_iIN_HKlxtu-1" value="Broker" style="whiteSpace=wrap;html=1;aspect=fixed;sketch=1;hachureGap=4;jiggle=2;curveFitting=1;fontFamily=Architects Daughter;fontSource=https%3A%2F%2Ffonts.googleapis.com%2Fcss%3Ffamily%3DArchitects%2BDaughter;fontSize=15;fontStyle=1;verticalAlign=top;rounded=1;fillColor=#dae8fc;strokeColor=#6c8ebf;" vertex="1" parent="1">
          <mxGeometry x="72.5" y="135" width="150" height="150" as="geometry" />
        </mxCell>
        <mxCell id="xtKhgX61a_iIN_HKlxtu-2" value="&lt;b style=&quot;font-size: 15px;&quot;&gt;Topic A&lt;br style=&quot;font-size: 15px;&quot;&gt;partition 0&lt;/b&gt;" style="rounded=1;whiteSpace=wrap;html=1;sketch=1;hachureGap=4;jiggle=2;curveFitting=1;fontFamily=Architects Daughter;fontSource=https%3A%2F%2Ffonts.googleapis.com%2Fcss%3Ffamily%3DArchitects%2BDaughter;fontSize=15;" vertex="1" parent="1">
          <mxGeometry x="90" y="165" width="110" height="50" as="geometry" />
        </mxCell>
        <mxCell id="xtKhgX61a_iIN_HKlxtu-9" style="rounded=0;sketch=1;hachureGap=4;jiggle=2;curveFitting=1;orthogonalLoop=1;jettySize=auto;html=1;exitX=1;exitY=0;exitDx=0;exitDy=0;entryX=0;entryY=0;entryDx=0;entryDy=0;fontFamily=Architects Daughter;fontSource=https%3A%2F%2Ffonts.googleapis.com%2Fcss%3Ffamily%3DArchitects%2BDaughter;fontSize=16;" edge="1" parent="1" source="xtKhgX61a_iIN_HKlxtu-4" target="xtKhgX61a_iIN_HKlxtu-6">
          <mxGeometry relative="1" as="geometry" />
        </mxCell>
        <mxCell id="xtKhgX61a_iIN_HKlxtu-10" style="rounded=0;sketch=1;hachureGap=4;jiggle=2;curveFitting=1;orthogonalLoop=1;jettySize=auto;html=1;exitX=1;exitY=1;exitDx=0;exitDy=0;entryX=0;entryY=1;entryDx=0;entryDy=0;fontFamily=Architects Daughter;fontSource=https%3A%2F%2Ffonts.googleapis.com%2Fcss%3Ffamily%3DArchitects%2BDaughter;fontSize=16;" edge="1" parent="1" source="xtKhgX61a_iIN_HKlxtu-4" target="xtKhgX61a_iIN_HKlxtu-6">
          <mxGeometry relative="1" as="geometry" />
        </mxCell>
        <mxCell id="xtKhgX61a_iIN_HKlxtu-4" value="&lt;b style=&quot;font-size: 15px;&quot;&gt;Topic A&lt;br style=&quot;font-size: 15px;&quot;&gt;partition 1&lt;/b&gt;" style="rounded=1;whiteSpace=wrap;html=1;sketch=1;hachureGap=4;jiggle=2;curveFitting=1;fontFamily=Architects Daughter;fontSource=https%3A%2F%2Ffonts.googleapis.com%2Fcss%3Ffamily%3DArchitects%2BDaughter;fontSize=15;fillColor=#d5e8d4;strokeColor=#82b366;" vertex="1" parent="1">
          <mxGeometry x="90" y="225" width="110" height="50" as="geometry" />
        </mxCell>
        <mxCell id="xtKhgX61a_iIN_HKlxtu-6" value="&lt;b&gt;Partition&lt;/b&gt;" style="rounded=1;whiteSpace=wrap;html=1;sketch=1;hachureGap=4;jiggle=2;curveFitting=1;fontFamily=Architects Daughter;fontSource=https%3A%2F%2Ffonts.googleapis.com%2Fcss%3Ffamily%3DArchitects%2BDaughter;fontSize=15;verticalAlign=top;fillColor=#d5e8d4;strokeColor=#82b366;" vertex="1" parent="1">
          <mxGeometry x="270" y="140" width="110" height="140" as="geometry" />
        </mxCell>
        <mxCell id="xtKhgX61a_iIN_HKlxtu-14" style="rounded=0;sketch=1;hachureGap=4;jiggle=2;curveFitting=1;orthogonalLoop=1;jettySize=auto;html=1;exitX=1;exitY=0;exitDx=0;exitDy=0;entryX=0;entryY=0;entryDx=0;entryDy=0;fontFamily=Architects Daughter;fontSource=https%3A%2F%2Ffonts.googleapis.com%2Fcss%3Ffamily%3DArchitects%2BDaughter;fontSize=16;" edge="1" parent="1" source="xtKhgX61a_iIN_HKlxtu-7" target="xtKhgX61a_iIN_HKlxtu-11">
          <mxGeometry relative="1" as="geometry" />
        </mxCell>
        <mxCell id="xtKhgX61a_iIN_HKlxtu-15" style="rounded=0;sketch=1;hachureGap=4;jiggle=2;curveFitting=1;orthogonalLoop=1;jettySize=auto;html=1;exitX=1;exitY=0.75;exitDx=0;exitDy=0;entryX=0;entryY=1;entryDx=0;entryDy=0;fontFamily=Architects Daughter;fontSource=https%3A%2F%2Ffonts.googleapis.com%2Fcss%3Ffamily%3DArchitects%2BDaughter;fontSize=16;" edge="1" parent="1" source="xtKhgX61a_iIN_HKlxtu-7" target="xtKhgX61a_iIN_HKlxtu-11">
          <mxGeometry relative="1" as="geometry" />
        </mxCell>
        <mxCell id="xtKhgX61a_iIN_HKlxtu-7" value="&lt;b&gt;Segment 0&lt;/b&gt;" style="rounded=1;whiteSpace=wrap;html=1;sketch=1;hachureGap=4;jiggle=2;curveFitting=1;fontFamily=Architects Daughter;fontSource=https%3A%2F%2Ffonts.googleapis.com%2Fcss%3Ffamily%3DArchitects%2BDaughter;fontSize=15;fillColor=#f8cecc;strokeColor=#b85450;" vertex="1" parent="1">
          <mxGeometry x="280" y="200" width="90" height="30" as="geometry" />
        </mxCell>
        <mxCell id="xtKhgX61a_iIN_HKlxtu-8" value="&lt;b&gt;Segment 1&lt;/b&gt;" style="rounded=1;whiteSpace=wrap;html=1;sketch=1;hachureGap=4;jiggle=2;curveFitting=1;fontFamily=Architects Daughter;fontSource=https%3A%2F%2Ffonts.googleapis.com%2Fcss%3Ffamily%3DArchitects%2BDaughter;fontSize=15;" vertex="1" parent="1">
          <mxGeometry x="280" y="240" width="90" height="30" as="geometry" />
        </mxCell>
        <mxCell id="xtKhgX61a_iIN_HKlxtu-11" value="&lt;b&gt;Segment&lt;/b&gt;" style="rounded=1;whiteSpace=wrap;html=1;sketch=1;hachureGap=4;jiggle=2;curveFitting=1;fontFamily=Architects Daughter;fontSource=https%3A%2F%2Ffonts.googleapis.com%2Fcss%3Ffamily%3DArchitects%2BDaughter;fontSize=15;verticalAlign=top;fillColor=#f8cecc;strokeColor=#b85450;" vertex="1" parent="1">
          <mxGeometry x="430" y="140" width="110" height="140" as="geometry" />
        </mxCell>
        <mxCell id="xtKhgX61a_iIN_HKlxtu-12" value="&lt;b&gt;Record o&lt;/b&gt;" style="rounded=1;whiteSpace=wrap;html=1;sketch=1;hachureGap=4;jiggle=2;curveFitting=1;fontFamily=Architects Daughter;fontSource=https%3A%2F%2Ffonts.googleapis.com%2Fcss%3Ffamily%3DArchitects%2BDaughter;fontSize=15;" vertex="1" parent="1">
          <mxGeometry x="440" y="195" width="90" height="30" as="geometry" />
        </mxCell>
        <mxCell id="xtKhgX61a_iIN_HKlxtu-20" style="rounded=0;sketch=1;hachureGap=4;jiggle=2;curveFitting=1;orthogonalLoop=1;jettySize=auto;html=1;exitX=1;exitY=0;exitDx=0;exitDy=0;entryX=0;entryY=0;entryDx=0;entryDy=0;fontFamily=Architects Daughter;fontSource=https%3A%2F%2Ffonts.googleapis.com%2Fcss%3Ffamily%3DArchitects%2BDaughter;fontSize=16;" edge="1" parent="1" source="xtKhgX61a_iIN_HKlxtu-13" target="xtKhgX61a_iIN_HKlxtu-16">
          <mxGeometry relative="1" as="geometry" />
        </mxCell>
        <mxCell id="xtKhgX61a_iIN_HKlxtu-21" style="rounded=0;sketch=1;hachureGap=4;jiggle=2;curveFitting=1;orthogonalLoop=1;jettySize=auto;html=1;exitX=1;exitY=0.75;exitDx=0;exitDy=0;entryX=0;entryY=1;entryDx=0;entryDy=0;fontFamily=Architects Daughter;fontSource=https%3A%2F%2Ffonts.googleapis.com%2Fcss%3Ffamily%3DArchitects%2BDaughter;fontSize=16;" edge="1" parent="1" source="xtKhgX61a_iIN_HKlxtu-13" target="xtKhgX61a_iIN_HKlxtu-16">
          <mxGeometry relative="1" as="geometry" />
        </mxCell>
        <mxCell id="xtKhgX61a_iIN_HKlxtu-13" value="&lt;b&gt;Record 1&lt;/b&gt;" style="rounded=1;whiteSpace=wrap;html=1;sketch=1;hachureGap=4;jiggle=2;curveFitting=1;fontFamily=Architects Daughter;fontSource=https%3A%2F%2Ffonts.googleapis.com%2Fcss%3Ffamily%3DArchitects%2BDaughter;fontSize=15;fillColor=#d5e8d4;strokeColor=#82b366;" vertex="1" parent="1">
          <mxGeometry x="440" y="240" width="90" height="30" as="geometry" />
        </mxCell>
        <mxCell id="xtKhgX61a_iIN_HKlxtu-16" value="&lt;b&gt;Record&lt;/b&gt;" style="rounded=1;whiteSpace=wrap;html=1;sketch=1;hachureGap=4;jiggle=2;curveFitting=1;fontFamily=Architects Daughter;fontSource=https%3A%2F%2Ffonts.googleapis.com%2Fcss%3Ffamily%3DArchitects%2BDaughter;fontSize=15;verticalAlign=top;fillColor=#d5e8d4;strokeColor=#82b366;" vertex="1" parent="1">
          <mxGeometry x="580" y="140" width="110" height="140" as="geometry" />
        </mxCell>
        <mxCell id="xtKhgX61a_iIN_HKlxtu-17" value="&lt;b&gt;key&lt;/b&gt;" style="rounded=1;whiteSpace=wrap;html=1;sketch=1;hachureGap=4;jiggle=2;curveFitting=1;fontFamily=Architects Daughter;fontSource=https%3A%2F%2Ffonts.googleapis.com%2Fcss%3Ffamily%3DArchitects%2BDaughter;fontSize=15;" vertex="1" parent="1">
          <mxGeometry x="590" y="200" width="90" height="30" as="geometry" />
        </mxCell>
        <mxCell id="xtKhgX61a_iIN_HKlxtu-18" value="&lt;b&gt;Value&lt;/b&gt;" style="rounded=1;whiteSpace=wrap;html=1;sketch=1;hachureGap=4;jiggle=2;curveFitting=1;fontFamily=Architects Daughter;fontSource=https%3A%2F%2Ffonts.googleapis.com%2Fcss%3Ffamily%3DArchitects%2BDaughter;fontSize=15;" vertex="1" parent="1">
          <mxGeometry x="590" y="230" width="90" height="30" as="geometry" />
        </mxCell>
        <mxCell id="xtKhgX61a_iIN_HKlxtu-19" value="&lt;b&gt;Metadata&lt;/b&gt;" style="rounded=1;whiteSpace=wrap;html=1;sketch=1;hachureGap=4;jiggle=2;curveFitting=1;fontFamily=Architects Daughter;fontSource=https%3A%2F%2Ffonts.googleapis.com%2Fcss%3Ffamily%3DArchitects%2BDaughter;fontSize=15;" vertex="1" parent="1">
          <mxGeometry x="590" y="170" width="90" height="30" as="geometry" />
        </mxCell>
        <mxCell id="xtKhgX61a_iIN_HKlxtu-22" value="" style="sketch=0;outlineConnect=0;fillColor=#d5e8d4;strokeColor=#82b366;dashed=0;verticalLabelPosition=bottom;verticalAlign=top;align=center;html=1;fontSize=12;fontStyle=0;aspect=fixed;pointerEvents=1;shape=mxgraph.aws4.folder;hachureGap=4;jiggle=2;curveFitting=1;fontFamily=Architects Daughter;fontSource=https%3A%2F%2Ffonts.googleapis.com%2Fcss%3Ffamily%3DArchitects%2BDaughter;" vertex="1" parent="1">
          <mxGeometry x="285" y="304.5" width="78" height="71" as="geometry" />
        </mxCell>
        <mxCell id="xtKhgX61a_iIN_HKlxtu-24" value="File" style="whiteSpace=wrap;html=1;shape=mxgraph.basic.document;hachureGap=4;fontFamily=Architects Daughter;fontSource=https%3A%2F%2Ffonts.googleapis.com%2Fcss%3Ffamily%3DArchitects%2BDaughter;fontSize=20;strokeWidth=4;fontStyle=1;fillColor=#f8cecc;strokeColor=#b85450;" vertex="1" parent="1">
          <mxGeometry x="450" y="305" width="70" height="70" as="geometry" />
        </mxCell>
        <mxCell id="xtKhgX61a_iIN_HKlxtu-27" value="&lt;b&gt;Folder&lt;/b&gt;" style="text;html=1;align=center;verticalAlign=middle;resizable=0;points=[];autosize=1;strokeColor=none;fillColor=none;fontSize=20;fontFamily=Architects Daughter;" vertex="1" parent="1">
          <mxGeometry x="283" y="325" width="80" height="40" as="geometry" />
        </mxCell>
        <mxCell id="xtKhgX61a_iIN_HKlxtu-31" value="File-entry" style="shape=umlState;rounded=1;verticalAlign=middle;align=center;absoluteArcSize=1;arcSize=10;umlStateConnection=connPointRefEntry;boundedLbl=1;whiteSpace=wrap;html=1;hachureGap=4;fontFamily=Architects Daughter;fontSource=https%3A%2F%2Ffonts.googleapis.com%2Fcss%3Ffamily%3DArchitects%2BDaughter;fontSize=20;strokeWidth=5;fontStyle=1;fillColor=#d5e8d4;strokeColor=#82b366;" vertex="1" parent="1">
          <mxGeometry x="570" y="315" width="130" height="50" as="geometry" />
        </mxCell>
        <mxCell id="xtKhgX61a_iIN_HKlxtu-38" value="&lt;b&gt;Logical&lt;/b&gt;" style="ellipse;shape=cloud;whiteSpace=wrap;html=1;hachureGap=4;fontFamily=Architects Daughter;fontSource=https%3A%2F%2Ffonts.googleapis.com%2Fcss%3Ffamily%3DArchitects%2BDaughter;fontSize=20;strokeWidth=4;fillColor=#dae8fc;strokeColor=#6c8ebf;" vertex="1" parent="1">
          <mxGeometry x="87.5" y="300" width="120" height="80" as="geometry" />
        </mxCell>
      </root>
    </mxGraphModel>
  </diagram>
</mxfile>
